<?xml version="1.0" encoding="UTF-8"?>
<svg version="1.1" xmlns="http://www.w3.org/2000/svg" width="2048" height="2048">
<path d="M0 0 C675.84 0 1351.68 0 2048 0 C2048 675.84 2048 1351.68 2048 2048 C1372.16 2048 696.32 2048 0 2048 C0 1372.16 0 696.32 0 0 Z " fill="#000000" transform="translate(0,0)"/>
<path d="M0 0 C228.03 0 456.06 0 691 0 C691 4.62 691 9.24 691 14 C688.53466797 14.14695312 688.53466797 14.14695312 686.01953125 14.296875 C625.72530486 16.99957769 625.72530486 16.99957769 567.375 30.9375 C566.64555176 31.20199951 565.91610352 31.46649902 565.16455078 31.73901367 C563.73617684 32.25944745 562.30886609 32.78281175 560.8828125 33.30957031 C559.33437974 33.87738253 557.77758873 34.42234996 556.21875 34.9609375 C543.12323506 39.7189746 526.88490308 49.17264538 519 61 C518.34 61 517.68 61 517 61 C516.75636719 61.54914062 516.51273438 62.09828125 516.26171875 62.6640625 C514.7267671 65.50586154 512.82403647 67.84759617 510.8125 70.375 C478.01563834 113.31950342 484.53932236 178.81861781 484.61905255 229.64077106 C484.63092931 237.61714795 484.62483193 245.59349011 484.61850847 253.56986977 C484.606675 269.19179887 484.61159764 284.81368717 484.62378674 300.43561396 C484.63438147 314.10964867 484.63885483 327.78366958 484.63749123 341.45770836 C484.6374072 342.3696804 484.63732317 343.28165244 484.63723659 344.22126 C484.63688426 347.9245822 484.63650022 351.6279044 484.63607101 355.33122659 C484.63211801 389.97579226 484.64476607 424.62033358 484.66559757 459.26489229 C484.68395832 489.9442605 484.68977974 520.62360539 484.68432617 551.30297852 C484.68397973 553.27287755 484.68363364 555.24277658 484.68328788 557.21267561 C484.68311689 558.1866253 484.68294589 559.16057499 484.68276971 560.16403832 C484.68191597 565.06833466 484.6810922 569.97263102 484.68030071 574.87692738 C484.68006509 576.32871934 484.68006509 576.32871934 484.67982471 577.80984043 C484.67582085 603.55654888 484.68132887 629.30325512 484.689812 655.04996222 C484.69071891 657.82550758 484.69162455 660.60105294 484.69252724 663.37659829 C484.69312834 665.21728694 484.69373696 667.05797559 484.69435314 668.89866423 C484.69854951 681.65144636 484.6991633 694.40422408 484.69724765 707.15700668 C484.6947886 723.60624322 484.69900408 740.05545621 484.71445765 756.50468639 C484.72172435 764.41870505 484.72604214 772.33269417 484.72121429 780.24671555 C484.66406619 820.38619952 484.66406619 820.38619952 485.95466614 860.50028992 C486.01928888 861.8032965 486.01928888 861.8032965 486.08521714 863.13262645 C485.74769482 871.17429208 485.74769482 871.17429208 488 878 C488.28656693 879.68968495 488.51794226 881.38877543 488.7265625 883.08984375 C492.76097217 914.14138101 499.00885936 943.08904559 524 964 C524.86109375 964.73734375 525.7221875 965.4746875 526.609375 966.234375 C535.07220292 973.35845048 543.75131838 978.85752589 554 983 C554.63470215 983.2592627 555.2694043 983.51852539 555.92333984 983.78564453 C576.5931927 992.18966416 597.30063166 996.80068501 619.375 999.5 C620.65647415 999.6590834 620.65647415 999.6590834 621.96383667 999.82138062 C644.89188109 1002.63103906 667.94048558 1003.82500222 691 1005 C691 1009.95 691 1014.9 691 1020 C462.97 1020 234.94 1020 0 1020 C0 1015.05 0 1010.1 0 1005 C1.28350342 1004.91959473 2.56700684 1004.83918945 3.8894043 1004.75634766 C8.75973983 1004.45033301 13.62978132 1004.13982735 18.49975586 1003.828125 C20.58724609 1003.69510885 22.67480915 1003.56322949 24.76245117 1003.43261719 C77.32192999 1000.29780846 77.32192999 1000.29780846 128 987 C129.13695312 986.60167969 130.27390625 986.20335937 131.4453125 985.79296875 C143.10617971 981.4975113 153.92013317 975.28426487 163.37109375 967.16015625 C166 965 166 965 168 965 C168.3403125 964.1646875 168.3403125 964.1646875 168.6875 963.3125 C170.3664331 960.35437977 172.58983583 958.41016417 175 956 C177.48741465 953.10610539 179.76096193 950.08912928 182 947 C182.64195312 946.13246094 183.28390625 945.26492188 183.9453125 944.37109375 C192.05100734 932.43506076 197.28471844 917.31372891 199 903 C199.33 902.67 199.66 902.34 200 902 C200.70264391 897.75739096 201.17119731 893.48133072 201.67456055 889.2109375 C201.92341851 887.1184048 202.1865691 885.02808897 202.45117188 882.9375 C206.72755154 847.94182568 206.29860106 812.75081952 206.27739334 777.56387506 C206.27295918 769.5242035 206.28035673 761.48455204 206.28786864 753.44488431 C206.30300766 736.78810799 206.30482438 720.13134702 206.30234561 703.47456525 C206.30050464 690.60662385 206.30228931 677.7386874 206.30657005 664.87074661 C206.30717248 663.01443917 206.30777368 661.15813172 206.30837366 659.30182428 C206.30928101 656.50376171 206.31018969 653.70569914 206.31110601 650.90763657 C206.31951965 624.93770381 206.32388204 598.9677729 206.31969929 572.99783897 C206.31946472 571.53322773 206.31946472 571.53322773 206.31922542 570.03902838 C206.31841977 565.09147413 206.317574 560.14391988 206.31671212 555.19636564 C206.31654103 554.21395921 206.31636994 553.23155279 206.31619367 552.21937647 C206.31584701 550.23272174 206.31549848 548.246067 206.31514808 546.25941226 C206.30978958 515.33927138 206.31773152 484.41915901 206.33618164 453.49902344 C206.35693891 418.67254637 206.36761763 383.84608696 206.36360615 349.01960337 C206.36321087 345.3002762 206.36284931 341.58094903 206.36250877 337.86162186 C206.36237268 336.48816674 206.36237268 336.48816674 206.36223383 335.08696505 C206.36107257 321.32285544 206.36767978 307.55876379 206.37832069 293.79465866 C206.39041972 278.12954502 206.39187746 262.46447072 206.37953053 246.79935645 C206.37294605 238.0562826 206.37442996 229.31330308 206.38811904 220.57023696 C206.39645427 214.70394917 206.39355049 208.83773092 206.38214377 202.9714486 C206.37597575 199.64680903 206.3757765 196.32249736 206.38600711 192.99784712 C206.51986033 146.19542947 203.75266993 92.3119083 169 57 C159.53634162 47.87504097 148.85636458 41.52852955 137 36 C136.07960938 35.55785156 135.15921875 35.11570312 134.2109375 34.66015625 C93.21354856 16.16997939 44.05686366 16.54804902 0 15 C0 10.05 0 5.1 0 0 Z " fill="#FDFEFD" transform="translate(568,514)"/>
<path d="M0 0 C1.00836914 0.76183594 1.00836914 0.76183594 2.03710938 1.5390625 C13.20491436 10.0209397 13.20491436 10.0209397 17.25 14.8125 C18.99743946 16.87102209 20.73800162 18.91903071 22.56640625 20.90625 C30.64101034 29.72147773 35.93424816 39.9238675 41.11328125 50.59375 C42.72883207 54.00985568 42.72883207 54.00985568 44.8125 57 C45.33984375 58.9453125 45.33984375 58.9453125 45.75 61.125 C46.37561852 64.18955322 47.14326665 67.01503224 48.25 69.9375 C56.91751757 95.85160867 55.56443678 127.98545618 44.8125 153 C44.50376953 153.74121094 44.19503906 154.48242188 43.87695312 155.24609375 C36.66430643 172.43882953 26.5942128 186.55883616 13.8125 200 C13.24144531 200.63550781 12.67039062 201.27101563 12.08203125 201.92578125 C3.50602581 211.16317528 -7.94042023 218.50573689 -19.1875 224 C-20.1671875 224.50015625 -21.146875 225.0003125 -22.15625 225.515625 C-28.21049926 228.48280657 -34.30214327 230.82402621 -40.75 232.75 C-41.7392749 233.04789429 -41.7392749 233.04789429 -42.74853516 233.35180664 C-53.78901093 236.49029105 -64.67593888 237.39066316 -76.125 237.375 C-77.13821823 237.37418427 -77.13821823 237.37418427 -78.17190552 237.37335205 C-105.70881319 237.27198074 -133.26815345 229.26184928 -155.1875 212 C-155.1875 211.34 -155.1875 210.68 -155.1875 210 C-155.90421875 209.76152344 -156.6209375 209.52304688 -157.359375 209.27734375 C-166.80613361 205.01064476 -174.01826407 195.01228137 -180.1875 187 C-181.31478516 185.59621094 -181.31478516 185.59621094 -182.46484375 184.1640625 C-188.42071277 176.56905688 -192.88224563 168.59102796 -197.1875 160 C-197.72375 158.98292969 -198.26 157.96585938 -198.8125 156.91796875 C-200.17869277 154.01869035 -201.03947458 151.29234387 -201.8125 148.1875 C-202.44803887 144.80134783 -202.44803887 144.80134783 -204.1875 142 C-210.63586422 111.49556199 -210.62029907 73.90839392 -194.0625 46.4375 C-193.55847656 45.66792969 -193.05445313 44.89835937 -192.53515625 44.10546875 C-191.30556573 42.18445632 -190.40529753 40.3361204 -189.5 38.25 C-186.80384596 32.61469092 -182.55177159 27.90366555 -178.6484375 23.07421875 C-176.17601835 20.07696066 -176.17601835 20.07696066 -174.1875 17 C-173.5275 17 -172.8675 17 -172.1875 17 C-171.9296875 16.40703125 -171.671875 15.8140625 -171.40625 15.203125 C-169.23502556 11.27821929 -165.60476055 8.82647991 -162.1875 6 C-161.48882813 5.3915625 -160.79015625 4.783125 -160.0703125 4.15625 C-115.17058637 -33.7521693 -46.79362726 -35.97402759 0 0 Z " fill="#FDFEFD" transform="translate(1525.1875,1303)"/>
<path d="M0 0 C0.33 0 0.66 0 1 0 C1.66 4.95 2.32 9.9 3 15 C3.33 15 3.66 15 4 15 C5.20325585 20.65931657 5.13767697 26.19687138 5.12304783 31.95204735 C5.12420167 33.0631668 5.12535552 34.17428626 5.12654433 35.319076 C5.12920273 39.06269765 5.12469515 42.80627676 5.12025452 46.54989624 C5.12069038 49.25269512 5.1215233 51.95549123 5.12284368 54.65828955 C5.12491749 60.54511422 5.12327352 66.43192879 5.11920547 72.31875229 C5.11317322 81.0722586 5.11286942 89.82575854 5.11374746 98.57926655 C5.11506179 113.30368426 5.11171833 128.02809748 5.10573006 142.75251389 C5.09981519 157.33377479 5.09596455 171.91503383 5.09487724 186.49629593 C5.0948085 187.40255429 5.09473976 188.30881264 5.09466894 189.24253337 C5.09433061 193.84486899 5.09402923 198.44720461 5.09374207 203.04954024 C5.09164106 235.65688877 5.08490204 268.26423487 5.07543945 300.87158203 C5.06625667 332.5512694 5.05917225 364.2309561 5.05493164 395.91064453 C5.05480011 396.88696794 5.05466859 397.86329135 5.05453308 398.86920032 C5.05321457 408.67374614 5.05193875 418.47829198 5.05069422 428.28283781 C5.04815793 448.25623639 5.04533668 468.22963493 5.04234314 488.20303345 C5.0421372 489.58058247 5.0421372 489.58058247 5.04192711 490.98596077 C5.03272479 552.32397486 5.0168794 613.6619876 5 675 C4.67 675 4.34 675 4 675 C3.67 559.17 3.34 443.34 3 324 C2.34 324.33 1.68 324.66 1 325 C0.67 217.75 0.34 110.5 0 0 Z " fill="#E7E7E6" transform="translate(1047,668)"/>
<path d="M0 0 C12.87 0 25.74 0 39 0 C39 0.66 39 1.32 39 2 C38.34 2.33 37.68 2.66 37 3 C39.64 3.33 42.28 3.66 45 4 C45 4.33 45 4.66 45 5 C30.98588647 6.20634311 17.07449206 7.38269012 3 7 C3 5.68 3 4.36 3 3 C2.01 2.01 1.02 1.02 0 0 Z " fill="#0D100D" transform="translate(584,1511)"/>
<path d="M0 0 C0.33 0 0.66 0 1 0 C1.68308308 18.34150736 2.17024338 36.64252532 2 55 C1.67 55 1.34 55 1 55 C0.67 48.73 0.34 42.46 0 36 C-1.32 36.66 -2.64 37.32 -4 38 C-3.50749333 28.83678371 -2.84371482 19.70013504 -2 10.5625 C-1.9170166 9.63284424 -1.8340332 8.70318848 -1.74853516 7.74536133 C-1.66651855 6.88193115 -1.58450195 6.01850098 -1.5 5.12890625 C-1.4278125 4.35619385 -1.355625 3.58348145 -1.28125 2.78735352 C-1 1 -1 1 0 0 Z " fill="#EDEDEA" transform="translate(775,1360)"/>
<path d="M0 0 C0.33 0 0.66 0 1 0 C1.10957031 0.78503906 1.21914062 1.57007813 1.33203125 2.37890625 C2.2447372 8.42651072 3.35841557 13.49669909 6 19 C7.1664386 22.30490937 8.21187349 25.58478513 9 29 C8.34 28.67 7.68 28.34 7 28 C7 27.34 7 26.68 7 26 C6.01 26.33 5.02 26.66 4 27 C3.01 26.67 2.02 26.34 1 26 C-0.48241833 21.55274502 -0.41384448 17.09844769 -0.625 12.4375 C-0.6765625 11.46619141 -0.728125 10.49488281 -0.78125 9.49414062 C-0.82507812 8.56666016 -0.86890625 7.63917969 -0.9140625 6.68359375 C-0.9548291 5.83337646 -0.9955957 4.98315918 -1.03759766 4.10717773 C-1 2 -1 2 0 0 Z M6 28 C6 28.99 6 29.98 6 31 C5.34 31 4.68 31 4 31 C4 30.34 4 29.68 4 29 C4.66 28.67 5.32 28.34 6 28 Z " fill="#070906" transform="translate(1319,1433)"/>
<path d="M0 0 C2.08268593 -0.08126087 4.16628658 -0.13930839 6.25 -0.1875 C7.99023438 -0.23970703 7.99023438 -0.23970703 9.765625 -0.29296875 C13.22268407 0.02017066 14.51565563 0.65709108 17 3 C15.10667466 3.81832722 13.21022267 4.62942268 11.3125 5.4375 C10.25675781 5.88996094 9.20101563 6.34242187 8.11328125 6.80859375 C5.38027471 7.85447455 2.87957663 8.53520748 0 9 C-0.33 8.01 -0.66 7.02 -1 6 C-0.34 6 0.32 6 1 6 C0.67 4.02 0.34 2.04 0 0 Z " fill="#F0F0EE" transform="translate(1485,1526)"/>
<path d="M0 0 C0.33 0 0.66 0 1 0 C1.10198107 9.48423955 1.06817366 18.9591844 0.6875 28.4375 C0.66502197 29.24743408 0.64254395 30.05736816 0.61938477 30.8918457 C0.35114536 36.60151297 0.35114536 36.60151297 -1.53198242 38.73852539 C-2.01642822 39.15481201 -2.50087402 39.57109863 -3 40 C-3.19586184 37.1253509 -3.38193799 34.25061717 -3.5625 31.375 C-3.61857422 30.56675781 -3.67464844 29.75851562 -3.73242188 28.92578125 C-4.00377106 24.47565464 -4.14846932 20.36005717 -3 16 C-2.34 15.67 -1.68 15.34 -1 15 C-0.68758629 12.45058627 -0.48696579 9.99638487 -0.375 7.4375 C-0.33632813 6.72658203 -0.29765625 6.01566406 -0.2578125 5.28320312 C-0.16328217 3.52257575 -0.08054183 1.76132272 0 0 Z " fill="#E5E5E3" transform="translate(776,635)"/>
<path d="M0 0 C1.32 0.33 2.64 0.66 4 1 C4.07654536 5.51617599 4.10228696 9.59085217 3 14 C1.68 13.01 0.36 12.02 -1 11 C-1.1490712 13.0745356 -1.1490712 13.0745356 0 15 C-0.66 15 -1.32 15 -2 15 C-2 15.66 -2 16.32 -2 17 C-2.99 16.67 -3.98 16.34 -5 16 C-4.39363767 10.23955788 -2.24341721 5.27985631 0 0 Z " fill="#0F1111" transform="translate(1573,1446)"/>
<path d="M0 0 C0.66 0.33 1.32 0.66 2 1 C-0.31 7.93 -2.62 14.86 -5 22 C-5.66 21.67 -6.32 21.34 -7 21 C-7.05411124 18.58303128 -7.09372278 16.16728213 -7.125 13.75 C-7.14175781 13.06808594 -7.15851563 12.38617187 -7.17578125 11.68359375 C-7.21213482 7.9391765 -7.07944349 5.17647273 -5 2 C-4.01 3.485 -4.01 3.485 -3 5 C-2.01 3.35 -1.02 1.7 0 0 Z " fill="#111311" transform="translate(1327,1354)"/>
<path d="M0 0 C-1.75954101 2.24052665 -2.63116592 2.94498514 -5.49609375 3.37231445 C-6.46675781 3.3693335 -7.43742187 3.36635254 -8.4375 3.36328125 C-10.02691406 3.36231445 -10.02691406 3.36231445 -11.6484375 3.36132812 C-12.75445313 3.34521484 -13.86046875 3.32910156 -15 3.3125 C-16.10601563 3.31572266 -17.21203125 3.31894531 -18.3515625 3.32226562 C-26.59938076 3.26707949 -26.59938076 3.26707949 -30 1 C-20.02300197 -0.3302664 -10.04385176 -0.09502917 0 0 Z " fill="#4B4D4B" transform="translate(1259,528)"/>
<path d="M0 0 C1.32 0.66 2.64 1.32 4 2 C1.69 6.62 -0.62 11.24 -3 16 C-3.66 16 -4.32 16 -5 16 C-6.53166168 11.91556885 -5.63081652 8.20544343 -5 4 C-4.01 4 -3.02 4 -2 4 C-2 3.34 -2 2.68 -2 2 C-1.34 2 -0.68 2 0 2 C0 1.34 0 0.68 0 0 Z " fill="#F2F3F0" transform="translate(1563,1461)"/>
<path d="M0 0 C1.4540625 0.0309375 1.4540625 0.0309375 2.9375 0.0625 C2.9375 0.7225 2.9375 1.3825 2.9375 2.0625 C3.9275 2.3925 4.9175 2.7225 5.9375 3.0625 C5.9375 4.0525 5.9375 5.0425 5.9375 6.0625 C6.5975 6.0625 7.2575 6.0625 7.9375 6.0625 C8.2675 7.0525 8.5975 8.0425 8.9375 9.0625 C9.5975 9.7225 10.2575 10.3825 10.9375 11.0625 C10.2775 11.7225 9.6175 12.3825 8.9375 13.0625 C5.81374531 11.70639915 4.0064031 10.26793984 1.875 7.625 C-0.0085952 5.31172526 -1.92047194 3.1409664 -4.0625 1.0625 C-3.0625 0.0625 -3.0625 0.0625 0 0 Z " fill="#F7F7F5" transform="translate(738.0625,566.9375)"/>
<path d="M0 0 C0.66 0 1.32 0 2 0 C2 1.65 2 3.3 2 5 C1.34 5 0.68 5 0 5 C0 5.66 0 6.32 0 7 C0.99 7.33 1.98 7.66 3 8 C4.125 13.625 4.125 13.625 3 17 C2.34 17 1.68 17 1 17 C-0.00508801 15.21118264 -1.00392736 13.41885304 -2 11.625 C-2.8353125 10.12839844 -2.8353125 10.12839844 -3.6875 8.6015625 C-5 6 -5 6 -5 4 C-4.0409375 3.8453125 -4.0409375 3.8453125 -3.0625 3.6875 C-2.381875 3.460625 -1.70125 3.23375 -1 3 C-0.67 2.01 -0.34 1.02 0 0 Z " fill="#F1F1EF" transform="translate(1333,1457)"/>
<path d="M0 0 C3.96 0 7.92 0 12 0 C12 0.66 12 1.32 12 2 C11.01 2.495 11.01 2.495 10 3 C12.64 3.33 15.28 3.66 18 4 C18 4.33 18 4.66 18 5 C11.73 5 5.46 5 -1 5 C-0.67 3.35 -0.34 1.7 0 0 Z " fill="#0B0D0A" transform="translate(611,1511)"/>
<path d="M0 0 C0.66 0.33 1.32 0.66 2 1 C1.67 2.32 1.34 3.64 1 5 C0.01 5 -0.98 5 -2 5 C-2 6.32 -2 7.64 -2 9 C-3.98 9 -5.96 9 -8 9 C-8.061875 9.78375 -8.12375 10.5675 -8.1875 11.375 C-8.5896875 12.674375 -8.5896875 12.674375 -9 14 C-11.5625 15.3125 -11.5625 15.3125 -14 16 C-14.66 15.01 -15.32 14.02 -16 13 C-14.23268551 11.6827656 -12.46102239 10.37136412 -10.6875 9.0625 C-9.70136719 8.33160156 -8.71523438 7.60070313 -7.69921875 6.84765625 C-5 5 -5 5 -2 4 C-0.79117904 1.99983534 -0.79117904 1.99983534 0 0 Z " fill="#EBECEA" transform="translate(738,1475)"/>
<path d="M0 0 C0.33 0.99 0.66 1.98 1 3 C-1 5 -1 5 -3.4375 5.8125 C-6.66994661 7.31046306 -7.45993716 8.84287117 -9 12 C-9.33 12.99 -9.66 13.98 -10 15 C-10.99 15 -11.98 15 -13 15 C-12.67 13.68 -12.34 12.36 -12 11 C-12.99 10.67 -13.98 10.34 -15 10 C-10.39486061 6.00887919 -5.24516756 3.05543741 0 0 Z " fill="#F1F2EE" transform="translate(1391,1290)"/>
<path d="M0 0 C1.09054687 0.09087891 1.09054687 0.09087891 2.203125 0.18359375 C3.71132813 0.30927734 3.71132813 0.30927734 5.25 0.4375 C10.359375 0.86328125 10.359375 0.86328125 15.46875 1.2890625 C17.09296875 1.42441406 17.09296875 1.42441406 18.75 1.5625 C21.375 1.78125 21.375 1.78125 24 2 C24 2.33 24 2.66 24 3 C21.95857606 3.16961386 19.91684689 3.33555596 17.875 3.5 C16.16957031 3.63921875 16.16957031 3.63921875 14.4296875 3.78125 C11.27402851 3.9825221 8.16078835 4.03842904 5 4 C4.67 4.66 4.34 5.32 4 6 C2.02 6 0.04 6 -2 6 C-1.34 4.02 -0.68 2.04 0 0 Z " fill="#1C1D18" transform="translate(619,531)"/>
<path d="M0 0 C1.32 0 2.64 0 4 0 C4 0.66 4 1.32 4 2 C11.26 2.33 18.52 2.66 26 3 C25.67 3.66 25.34 4.32 25 5 C21.7 5 18.4 5 15 5 C15 5.99 15 6.98 15 8 C9.76727367 6.36041242 4.84803364 4.61047965 0 2 C0 1.34 0 0.68 0 0 Z " fill="#EDEEEB" transform="translate(1386,1523)"/>
<path d="M0 0 C3.80635497 3.20760251 7.54563567 6.40746109 11 10 C6 9 6 9 3.5625 8.4375 C0.67055731 7.94375369 -2.07166734 7.93189924 -5 8 C-4.34 6.35 -3.68 4.7 -3 3 C-2.01 3 -1.02 3 0 3 C0 2.01 0 1.02 0 0 Z " fill="#F1F0EF" transform="translate(1086,1473)"/>
<path d="M0 0 C1.4783226 2.95664519 1.06032783 5.74229737 1 9 C1.99 8.67 2.98 8.34 4 8 C5 10 5 10 4.22265625 12.8203125 C3.64837891 14.45613281 3.64837891 14.45613281 3.0625 16.125 C2.68222656 17.22070312 2.30195312 18.31640625 1.91015625 19.4453125 C1.60980469 20.28835938 1.30945313 21.13140625 1 22 C0.34 22 -0.32 22 -1 22 C-1.02887814 18.52085059 -1.04675687 15.04173169 -1.0625 11.5625 C-1.07087891 10.56927734 -1.07925781 9.57605469 -1.08789062 8.55273438 C-1.09111328 7.60849609 -1.09433594 6.66425781 -1.09765625 5.69140625 C-1.10289307 4.81685791 -1.10812988 3.94230957 -1.11352539 3.04125977 C-1 1 -1 1 0 0 Z " fill="#0A0C09" transform="translate(761,1417)"/>
<path d="M0 0 C0.66 0 1.32 0 2 0 C2.19335938 0.73605469 2.38671875 1.47210937 2.5859375 2.23046875 C2.84632812 3.20628906 3.10671875 4.18210937 3.375 5.1875 C3.75785156 6.63189453 3.75785156 6.63189453 4.1484375 8.10546875 C4.94766296 10.82210207 5.9031362 13.39137175 7 16 C6.34 15.67 5.68 15.34 5 15 C5 14.34 5 13.68 5 13 C4.01 13.33 3.02 13.66 2 14 C1.01 13.67 0.02 13.34 -1 13 C-1 11.02 -1 9.04 -1 7 C-0.01 7.495 -0.01 7.495 1 8 C1.33 7.01 1.66 6.02 2 5 C1.34 5 0.68 5 0 5 C0 3.35 0 1.7 0 0 Z M4 15 C4 15.99 4 16.98 4 18 C3.34 18 2.68 18 2 18 C2 17.34 2 16.68 2 16 C2.66 15.67 3.32 15.34 4 15 Z " fill="#1D1E1C" transform="translate(1321,1446)"/>
<path d="M0 0 C-2.25 2.5 -2.25 2.5 -5 5 C-6.32 5 -7.64 5 -9 5 C-9 4.34 -9 3.68 -9 3 C-15.27 3 -21.54 3 -28 3 C-28 2.67 -28 2.34 -28 2 C-24.4587501 1.66213906 -20.91694184 1.33052169 -17.375 1 C-16.37597656 0.90460937 -15.37695312 0.80921875 -14.34765625 0.7109375 C-9.54861994 0.26599374 -4.82618926 -0.13177309 0 0 Z " fill="#34312D" transform="translate(1212,531)"/>
<path d="M0 0 C0.66 0.99 1.32 1.98 2 3 C1.34 3 0.68 3 0 3 C0 3.99 0 4.98 0 6 C-0.99 6 -1.98 6 -3 6 C-3.33 8.31 -3.66 10.62 -4 13 C-4.99 12.67 -5.98 12.34 -7 12 C-7.33 12.66 -7.66 13.32 -8 14 C-8.66 12.68 -9.32 11.36 -10 10 C-6.7 6.7 -3.4 3.4 0 0 Z " fill="#161818" transform="translate(1543,1498)"/>
<path d="M0 0 C0.33 0 0.66 0 1 0 C1.02909763 3.24998112 1.04683161 6.49992857 1.0625 9.75 C1.07087891 10.67039062 1.07925781 11.59078125 1.08789062 12.5390625 C1.09111328 13.42851563 1.09433594 14.31796875 1.09765625 15.234375 C1.10289307 16.05131836 1.10812988 16.86826172 1.11352539 17.70996094 C1.00299021 19.93968135 0.62055567 21.86133755 0 24 C-0.66 24 -1.32 24 -2 24 C-2.66 20.7 -3.32 17.4 -4 14 C-3.01 14 -2.02 14 -1 14 C-0.67 9.38 -0.34 4.76 0 0 Z " fill="#181916" transform="translate(1064,1407)"/>
<path d="M0 0 C0.33 0 0.66 0 1 0 C1.66 4.95 2.32 9.9 3 15 C3.33 15 3.66 15 4 15 C4 16.98 4 18.96 4 21 C3.67 21 3.34 21 3 21 C2.67 23.31 2.34 25.62 2 28 C1.67 28 1.34 28 1 28 C0.17961409 21.598406 -0.12754513 15.38697499 -0.0625 8.9375 C-0.05798828 8.07189453 -0.05347656 7.20628906 -0.04882812 6.31445312 C-0.03719913 4.20960461 -0.01927073 2.10479242 0 0 Z " fill="#F1F1F0" transform="translate(1047,668)"/>
<path d="M0 0 C2.0625 0.4375 2.0625 0.4375 4 1 C4 1.66 4 2.32 4 3 C4.66 3.33 5.32 3.66 6 4 C6.5625 6.3125 6.5625 6.3125 7 9 C7.32483418 10.33542939 7.6550855 11.66961551 8 13 C7.01 13 6.02 13 5 13 C3.02 9.04 1.04 5.08 -1 1 C-0.67 0.67 -0.34 0.34 0 0 Z " fill="#0D0E0C" transform="translate(1557,1334)"/>
<path d="M0 0 C2.76223278 2.76223278 2.57856291 5.20706617 3 9 C0.03 7.35 -2.94 5.7 -6 4 C-3 1 -3 1 0 0 Z " fill="#F3F3F1" transform="translate(1382,1515)"/>
<path d="M0 0 C1.485 0.99 1.485 0.99 3 2 C3.2208564 4.95064148 3.28060989 7.68368231 3.1875 10.625 C3.17396484 11.42679688 3.16042969 12.22859375 3.14648438 13.0546875 C3.11109051 15.03674378 3.05728234 17.01845551 3 19 C0.51955685 15.27933528 0.55618827 12.13459526 0.375 7.8125 C0.33632812 7.06291016 0.29765625 6.31332031 0.2578125 5.54101562 C0.16371784 3.69440801 0.08077681 1.8472381 0 0 Z " fill="#070706" transform="translate(1061,1405)"/>
<path d="M0 0 C2.4389764 0.28199727 4.87570933 0.57515615 7.3125 0.875 C8.00279297 0.95363281 8.69308594 1.03226563 9.40429688 1.11328125 C12.95639471 1.55943847 14.9697029 1.97980193 18 4 C14.25050945 4.76694125 11.659341 5.06238932 8 4 C6.33376361 3.96213099 4.66602403 3.95372155 3 4 C2.67 4.66 2.34 5.32 2 6 C1.34 4.02 0.68 2.04 0 0 Z " fill="#282B29" transform="translate(1415,1536)"/>
<path d="M0 0 C0 1.98 0 3.96 0 6 C-0.721875 6.12375 -1.44375 6.2475 -2.1875 6.375 C-5.03107259 6.919919 -5.03107259 6.919919 -7.6875 8.125 C-8.450625 8.41375 -9.21375 8.7025 -10 9 C-10.66 8.67 -11.32 8.34 -12 8 C-10.18959679 6.66382103 -8.3766216 5.33112616 -6.5625 4 C-5.55316406 3.2575 -4.54382812 2.515 -3.50390625 1.75 C-1 0 -1 0 0 0 Z " fill="#EDEEEC" transform="translate(1376,1300)"/>
<path d="M0 0 C0.33 0.66 0.66 1.32 1 2 C0.01 2.495 0.01 2.495 -1 3 C-1.33 3.99 -1.66 4.98 -2 6 C0.97 6 3.94 6 7 6 C6.67 6.66 6.34 7.32 6 8 C2.04 7.67 -1.92 7.34 -6 7 C-6.33 6.01 -6.66 5.02 -7 4 C-4.69 2.68 -2.38 1.36 0 0 Z " fill="#E3E4E1" transform="translate(721,1489)"/>
<path d="M0 0 C0.66 0 1.32 0 2 0 C2 0.66 2 1.32 2 2 C2.78375 1.79375 3.5675 1.5875 4.375 1.375 C5.674375 1.189375 5.674375 1.189375 7 1 C7.66 1.66 8.32 2.32 9 3 C5.37 4.32 1.74 5.64 -2 7 C-2 5.35 -2 3.7 -2 2 C-1.01 2.33 -0.02 2.66 1 3 C0.67 2.01 0.34 1.02 0 0 Z " fill="#0D100D" transform="translate(694,1496)"/>
<path d="M0 0 C0.33 0.99 0.66 1.98 1 3 C-0.9375 5.6875 -0.9375 5.6875 -3 8 C-5.97 7.505 -5.97 7.505 -9 7 C-9 6.34 -9 5.68 -9 5 C-6.03 3.35 -3.06 1.7 0 0 Z " fill="#0F1110" transform="translate(1515,1521)"/>
<path d="M0 0 C1.32 0 2.64 0 4 0 C4 0.99 4 1.98 4 3 C4.99 2.67 5.98 2.34 7 2 C7 2.66 7 3.32 7 4 C9.97 4 12.94 4 16 4 C16 4.33 16 4.66 16 5 C9.55929529 5.10655578 3.37358711 4.96205088 -3 4 C-2.505 3.525625 -2.01 3.05125 -1.5 2.5625 C0.11542197 1.24076302 0.11542197 1.24076302 0 0 Z " fill="#343532" transform="translate(1205,1512)"/>
<path d="M0 0 C3.37503669 1.1858237 5.64722731 2.27573689 8 5 C7 6 7 6 3.4375 6.0625 C2.303125 6.041875 1.16875 6.02125 0 6 C-1.125 2.25 -1.125 2.25 0 0 Z " fill="#EFEFEE" transform="translate(1105,1489)"/>
<path d="M0 0 C1.65 0.33 3.3 0.66 5 1 C3.68 3.97 2.36 6.94 1 10 C0.34 10 -0.32 10 -1 10 C-2.46726798 6.18510326 -1.43336419 3.70988378 0 0 Z " fill="#ECECEB" transform="translate(1559,1467)"/>
<path d="M0 0 C0.66 0.33 1.32 0.66 2 1 C1.67 1.99 1.34 2.98 1 4 C0.34 4 -0.32 4 -1 4 C-0.67 4.99 -0.34 5.98 0 7 C-0.99 7.495 -0.99 7.495 -2 8 C-2 7.01 -2 6.02 -2 5 C-2.45375 5.495 -2.9075 5.99 -3.375 6.5 C-5 8 -5 8 -7 8 C-5.79618552 5.50638429 -4.54571278 3.31856917 -3 1 C-2.01 0.67 -1.02 0.34 0 0 Z " fill="#E9EAE8" transform="translate(759,1451)"/>
<path d="M0 0 C0.99 0.33 1.98 0.66 3 1 C4.1875 3.5625 4.1875 3.5625 5 6 C4.01 6.66 3.02 7.32 2 8 C2 8.66 2 9.32 2 10 C1.34 10 0.68 10 0 10 C0 6.7 0 3.4 0 0 Z " fill="#EDEDEB" transform="translate(1065,1445)"/>
<path d="M0 0 C0.66 0 1.32 0 2 0 C2.33 3.3 2.66 6.6 3 10 C2.01 10.33 1.02 10.66 0 11 C-0.19406478 9.35492782 -0.38007935 7.70890406 -0.5625 6.0625 C-0.66691406 5.14597656 -0.77132812 4.22945312 -0.87890625 3.28515625 C-0.91886719 2.53105469 -0.95882812 1.77695312 -1 1 C-0.67 0.67 -0.34 0.34 0 0 Z " fill="#E1E1DF" transform="translate(771,640)"/>
<path d="M0 0 C1.32 0 2.64 0 4 0 C5.53166168 4.08443115 4.63081652 7.79455657 4 12 C3.67 12 3.34 12 3 12 C2.01 8.04 1.02 4.08 0 0 Z " fill="#222321" transform="translate(1570,1363)"/>
<path d="M0 0 C0.33 0.99 0.66 1.98 1 3 C2.32 2.67 3.64 2.34 5 2 C5.33 2.99 5.66 3.98 6 5 C5.443125 5.12375 4.88625 5.2475 4.3125 5.375 C1.77885636 6.05976855 -0.57921032 6.99133763 -3 8 C-1.125 2.25 -1.125 2.25 0 0 Z " fill="#E8E9E5" transform="translate(1331,1349)"/>
<path d="M0 0 C2.0625 2.3125 2.0625 2.3125 4 5 C3.67 5.99 3.34 6.98 3 8 C1.68 8 0.36 8 -1 8 C-1.04241723 5.66705225 -1.04092937 3.33297433 -1 1 C-0.67 0.67 -0.34 0.34 0 0 Z " fill="#ECEDEA" transform="translate(1561,1345)"/>
<path d="M0 0 C0.66 0 1.32 0 2 0 C2 0.99 2 1.98 2 3 C2.66 3 3.32 3 4 3 C4.33 3.99 4.66 4.98 5 6 C5.66 6.66 6.32 7.32 7 8 C6.34 8.66 5.68 9.32 5 10 C3.68 9.34 2.36 8.68 1 8 C1 6.66666667 1 5.33333333 1 4 C0.67619874 2.66431979 0.34342449 1.33076989 0 0 Z " fill="#E9E9E7" transform="translate(742,570)"/>
<path d="M0 0 C2.97 0.99 5.94 1.98 9 3 C7 5 7 5 3.375 5.125 C2.26125 5.08375 1.1475 5.0425 0 5 C0 3.35 0 1.7 0 0 Z " fill="#EDEDEB" transform="translate(1123,1498)"/>
<path d="M0 0 C1.65 0.33 3.3 0.66 5 1 C4.34 2.32 3.68 3.64 3 5 C0.69 5 -1.62 5 -4 5 C-4 4.34 -4 3.68 -4 3 C-2.68 2.67 -1.36 2.34 0 2 C0 1.34 0 0.68 0 0 Z " fill="#F9F9F7" transform="translate(1093,1482)"/>
<path d="M0 0 C0.33 0 0.66 0 1 0 C1.22162329 1.62324086 1.42689803 3.248721 1.625 4.875 C1.74101563 5.77992187 1.85703125 6.68484375 1.9765625 7.6171875 C1.98429687 8.40351562 1.99203125 9.18984375 2 10 C1.34 10.66 0.68 11.32 0 12 C-1.12256131 9.75487738 -1.13413762 8.48543351 -1.125 6 C-1.12886719 4.948125 -1.12886719 4.948125 -1.1328125 3.875 C-1 2 -1 2 0 0 Z " fill="#151515" transform="translate(1319,1433)"/>
<path d="M0 0 C2.125 0.9375 2.125 0.9375 4 2 C4 2.99 4 3.98 4 5 C1 6 1 6 -1.1875 5.0625 C-1.785625 4.711875 -2.38375 4.36125 -3 4 C-2.67 3.01 -2.34 2.02 -2 1 C-1.34 0.67 -0.68 0.34 0 0 Z " fill="#171614" transform="translate(1509,1288)"/>
<path d="M0 0 C2.31 0.33 4.62 0.66 7 1 C7 1.66 7 2.32 7 3 C7.66 3 8.32 3 9 3 C9 3.66 9 4.32 9 5 C6.03 4.01 3.06 3.02 0 2 C0 1.34 0 0.68 0 0 Z " fill="#161715" transform="translate(1125,1497)"/>
<path d="M0 0 C0.33 1.32 0.66 2.64 1 4 C1.309375 5.051875 1.309375 5.051875 1.625 6.125 C2 8 2 8 1 10 C-0.32 9.67 -1.64 9.34 -3 9 C-2.01 6.03 -1.02 3.06 0 0 Z " fill="#DDDDDC" transform="translate(761,1439)"/>
<path d="M0 0 C0.99 0.33 1.98 0.66 3 1 C2.67 1.99 2.34 2.98 2 4 C1.34 4 0.68 4 0 4 C0 5.32 0 6.64 0 8 C-0.99 7.67 -1.98 7.34 -3 7 C-2.38722388 4.03824877 -1.74627478 2.61941217 0 0 Z " fill="#EDEEEC" transform="translate(1344,1329)"/>
<path d="M0 0 C2.31 0 4.62 0 7 0 C6.34 1.98 5.68 3.96 5 6 C4.01 6 3.02 6 2 6 C1.34 4.02 0.68 2.04 0 0 Z " fill="#EBECEB" transform="translate(1065,593)"/>
<path d="M0 0 C2.1640625 0.0234375 2.1640625 0.0234375 4.625 0.375 C5.85089844 0.54128906 5.85089844 0.54128906 7.1015625 0.7109375 C7.72804688 0.80632813 8.35453125 0.90171875 9 1 C9 1.99 9 2.98 9 4 C5.37 3.34 1.74 2.68 -2 2 C-1.34 1.34 -0.68 0.68 0 0 Z " fill="#E0E0DD" transform="translate(673,537)"/>
<path d="M0 0 C0.99 0 1.98 0 3 0 C4 1 5 2 6 3 C8.10332891 3.71447643 8.10332891 3.71447643 10 4 C8.66666667 5.33333333 7.33333333 6.66666667 6 8 C4.02 5.36 2.04 2.72 0 0 Z " fill="#EBEBEA" transform="translate(1349,1494)"/>
<path d="M0 0 C0 0.66 0 1.32 0 2 C-3.96 1.67 -7.92 1.34 -12 1 C-7.15597974 -2.22934684 -5.31318439 -2.00720299 0 0 Z " fill="#ECECE8" transform="translate(1525,1303)"/>
<path d="M0 0 C0.33 0 0.66 0 1 0 C2.32286246 4.96073422 2.08893197 9.91111512 2 15 C-0.19219402 12.63310671 -0.9871902 11.48272731 -1.07421875 8.203125 C-0.88279297 6.74132812 -0.88279297 6.74132812 -0.6875 5.25 C-0.50767578 3.77273438 -0.50767578 3.77273438 -0.32421875 2.265625 C-0.21722656 1.51796875 -0.11023437 0.7703125 0 0 Z " fill="#E5E5E3" transform="translate(1051,671)"/>
<path d="M0 0 C1.32 1.32 2.64 2.64 4 4 C3.34 5.98 2.68 7.96 2 10 C1.34 10 0.68 10 0 10 C0 6.7 0 3.4 0 0 Z " fill="#E0E0DF" transform="translate(1063,601)"/>
<path d="M0 0 C1.32 0.33 2.64 0.66 4 1 C3 3 3 3 1 6 C-1.625 6.1875 -1.625 6.1875 -4 6 C-2.68 4.02 -1.36 2.04 0 0 Z " fill="#EEEEED" transform="translate(747,1465)"/>
<path d="M0 0 C-0.33 1.65 -0.66 3.3 -1 5 C-1.99 5 -2.98 5 -4 5 C-5.6875 2.5 -5.6875 2.5 -7 0 C-2.25 -1.125 -2.25 -1.125 0 0 Z " fill="#0E100E" transform="translate(1087,1466)"/>
<path d="M0 0 C1.9375 0.75 1.9375 0.75 4 2 C4.75 4.125 4.75 4.125 5 6 C4.34 5.67 3.68 5.34 3 5 C3 4.34 3 3.68 3 3 C2.01 3.33 1.02 3.66 0 4 C0 2.68 0 1.36 0 0 Z M2 5 C2 5.99 2 6.98 2 8 C1.34 8 0.68 8 0 8 C0 7.34 0 6.68 0 6 C0.66 5.67 1.32 5.34 2 5 Z " fill="#0F110F" transform="translate(1323,1456)"/>
<path d="M0 0 C1.65 0 3.3 0 5 0 C5 1.65 5 3.3 5 5 C4.01 5.33 3.02 5.66 2 6 C1.34 5.67 0.68 5.34 0 5 C0 3.35 0 1.7 0 0 Z " fill="#0B0E0B" transform="translate(723,1480)"/>
<path d="M0 0 C1.485 0.99 1.485 0.99 3 2 C3.66 2 4.32 2 5 2 C4 5 4 5 1.9375 6.1875 C1.298125 6.455625 0.65875 6.72375 0 7 C-1.125 2.25 -1.125 2.25 0 0 Z " fill="#060806" transform="translate(1321,1457)"/>
<path d="M0 0 C0.6875 2.3125 0.6875 2.3125 1 5 C-0.4375 6.8125 -0.4375 6.8125 -2 8 C-2.33 7.01 -2.66 6.02 -3 5 C-2.67 4.34 -2.34 3.68 -2 3 C-2.66 3 -3.32 3 -4 3 C-4 2.34 -4 1.68 -4 1 C-2 0 -2 0 0 0 Z " fill="#080A07" transform="translate(1325,1352)"/>
<path d="M0 0 C0.33 0.99 0.66 1.98 1 3 C-1.35953094 5.35953094 -2.77895617 5.49141413 -6 6 C-6.33 5.34 -6.66 4.68 -7 4 C-4.69 2.68 -2.38 1.36 0 0 Z " fill="#E1E1E0" transform="translate(1391,1290)"/>
<path d="M0 0 C0.78375 0.04125 1.5675 0.0825 2.375 0.125 C2.045 1.445 1.715 2.765 1.375 4.125 C-0.605 4.455 -2.585 4.785 -4.625 5.125 C-4.625 1.22254579 -3.95783286 0.18846823 0 0 Z " fill="#E9E9E7" transform="translate(1150.625,535.875)"/>
<path d="M0 0 C5.94 0.99 5.94 0.99 12 2 C12 2.33 12 2.66 12 3 C8.04 3 4.08 3 0 3 C0 2.01 0 1.02 0 0 Z " fill="#2E302E" transform="translate(617,1513)"/>
<path d="M0 0 C0.66 0.66 1.32 1.32 2 2 C-0.3125 4.5 -0.3125 4.5 -3 7 C-3.99 7 -4.98 7 -6 7 C-4.02 4.69 -2.04 2.38 0 0 Z " fill="#161718" transform="translate(1550,1490)"/>
<path d="M0 0 C1.32 0.33 2.64 0.66 4 1 C4 2.32 4 3.64 4 5 C2.35 5.33 0.7 5.66 -1 6 C-1.33 5.34 -1.66 4.68 -2 4 C-1.0625 1.875 -1.0625 1.875 0 0 Z " fill="#EBECE9" transform="translate(751,1459)"/>
<path d="M0 0 C0.33 0 0.66 0 1 0 C1.2236337 1.41433206 1.42826476 2.83167618 1.625 4.25 C1.74101563 5.03890625 1.85703125 5.8278125 1.9765625 6.640625 C2.00319395 9.32152459 1.36592084 10.72694089 0 13 C-1.29676812 8.38926889 -0.71109139 4.66159911 0 0 Z " fill="#1F211E" transform="translate(1321,1363)"/>
<path d="M0 0 C1.4540625 0.0309375 1.4540625 0.0309375 2.9375 0.0625 C2.9375 0.7225 2.9375 1.3825 2.9375 2.0625 C2.2775 2.0625 1.6175 2.0625 0.9375 2.0625 C0.6075 3.0525 0.2775 4.0425 -0.0625 5.0625 C-1.3825 3.7425 -2.7025 2.4225 -4.0625 1.0625 C-3.0625 0.0625 -3.0625 0.0625 0 0 Z " fill="#E7E7E5" transform="translate(738.0625,566.9375)"/>
<path d="M0 0 C-1.98 0.99 -1.98 0.99 -4 2 C-4 2.66 -4 3.32 -4 4 C-4.99 4 -5.98 4 -7 4 C-7.33 3.01 -7.66 2.02 -8 1 C-3.375 -1.125 -3.375 -1.125 0 0 Z " fill="#1F2220" transform="translate(1125,550)"/>
<path d="M0 0 C2.31 0 4.62 0 7 0 C7 0.99 7 1.98 7 3 C4.69 3 2.38 3 0 3 C0 2.01 0 1.02 0 0 Z " fill="#020401" transform="translate(610,1513)"/>
<path d="M0 0 C2.97 0.495 2.97 0.495 6 1 C4.68 2.32 3.36 3.64 2 5 C1.01 4.34 0.02 3.68 -1 3 C-0.67 2.01 -0.34 1.02 0 0 Z " fill="#EFF0EE" transform="translate(1529,1505)"/>
<path d="M0 0 C0.99 0.33 1.98 0.66 3 1 C2.0479279 2.00596297 1.08812654 3.00461563 0.125 4 C-0.40867187 4.556875 -0.94234375 5.11375 -1.4921875 5.6875 C-3 7 -3 7 -5 7 C-4.67 6.01 -4.34 5.02 -4 4 C-3.34 4 -2.68 4 -2 4 C-1.34 2.68 -0.68 1.36 0 0 Z " fill="#F3F3F2" transform="translate(1542,1496)"/>
<path d="M0 0 C1.32 1.32 2.64 2.64 4 4 C2.02 4.33 0.04 4.66 -2 5 C-1.125 1.125 -1.125 1.125 0 0 Z " fill="#EDEDEC" transform="translate(1079,1466)"/>
<path d="M0 0 C0 1.98 0 3.96 0 6 C-0.99 6.495 -0.99 6.495 -2 7 C-4 4 -4 4 -4 1 C-1 0 -1 0 0 0 Z " fill="#161716" transform="translate(1070,1441)"/>
<path d="M0 0 C0.66 0.66 1.32 1.32 2 2 C0.02 4.97 0.02 4.97 -2 8 C-2.66 7.67 -3.32 7.34 -4 7 C-3.67 5.35 -3.34 3.7 -3 2 C-2.01 2 -1.02 2 0 2 C0 1.34 0 0.68 0 0 Z " fill="#0C0D0D" transform="translate(1338,1334)"/>
<path d="M0 0 C1.9453125 -0.29296875 1.9453125 -0.29296875 4.125 -0.1875 C5.40375 -0.125625 6.6825 -0.06375 8 0 C4.99382731 3.00617269 2.17618402 2.59585316 -2 3 C-1.34 2.01 -0.68 1.02 0 0 Z " fill="#070907" transform="translate(1432,1540)"/>
<path d="M0 0 C0.99 0.33 1.98 0.66 3 1 C2.67 2.32 2.34 3.64 2 5 C-0.475 4.01 -0.475 4.01 -3 3 C-2.01 2.01 -1.02 1.02 0 0 Z " fill="#E8E8E5" transform="translate(1379,1516)"/>
<path d="M0 0 C0.66 0.33 1.32 0.66 2 1 C1.67 2.32 1.34 3.64 1 5 C-0.65 5.33 -2.3 5.66 -4 6 C-4 5.34 -4 4.68 -4 4 C-3.34 4 -2.68 4 -2 4 C-1.34 2.68 -0.68 1.36 0 0 Z " fill="#DEDEDE" transform="translate(738,1475)"/>
<path d="M0 0 C0.33 0.66 0.66 1.32 1 2 C0.01 3.485 0.01 3.485 -1 5 C-1.99 5 -2.98 5 -4 5 C-4.33 5.66 -4.66 6.32 -5 7 C-4.49396008 4.83125748 -4.00016187 3.00032373 -3 1 C-2.01 0.67 -1.02 0.34 0 0 Z " fill="#F8F9F7" transform="translate(1565,1463)"/>
<path d="M0 0 C0.33 0.66 0.66 1.32 1 2 C1.66 2 2.32 2 3 2 C2.690625 2.598125 2.38125 3.19625 2.0625 3.8125 C0.89790296 6.08956772 0.89790296 6.08956772 0 9 C-0.66 9 -1.32 9 -2 9 C-1.34 6.03 -0.68 3.06 0 0 Z " fill="#E6E7E5" transform="translate(764,1430)"/>
<path d="M0 0 C0.99 0.33 1.98 0.66 3 1 C3.33 2.65 3.66 4.3 4 6 C3.01 6 2.02 6 1 6 C0.34 4.35 -0.32 2.7 -1 1 C-0.67 0.67 -0.34 0.34 0 0 Z " fill="#141513" transform="translate(1561,1341)"/>
<path d="M0 0 C0.99 0.66 1.98 1.32 3 2 C3 2.99 3 3.98 3 5 C2.01 5.33 1.02 5.66 0 6 C-0.66 5.67 -1.32 5.34 -2 5 C-1.125 1.125 -1.125 1.125 0 0 Z " fill="#EDEEEC" transform="translate(1349,1323)"/>
<path d="M0 0 C2.97 0 5.94 0 9 0 C8.67 1.32 8.34 2.64 8 4 C5.33333333 2.66666667 2.66666667 1.33333333 0 0 Z " fill="#060908" transform="translate(1449,1541)"/>
<path d="M0 0 C0.33 0 0.66 0 1 0 C1 1.65 1 3.3 1 5 C0.34 5 -0.32 5 -1 5 C-1.33 5.66 -1.66 6.32 -2 7 C-2.66 6.34 -3.32 5.68 -4 5 C-2.69254251 3.31295807 -1.35827971 1.64639965 0 0 Z " fill="#F3F4F2" transform="translate(1377,1511)"/>
<path d="M0 0 C0.33 0.99 0.66 1.98 1 3 C1.66 3.33 2.32 3.66 3 4 C2.34 5.65 1.68 7.3 1 9 C0.34 9 -0.32 9 -1 9 C-0.67 6.03 -0.34 3.06 0 0 Z " fill="#151714" transform="translate(761,1430)"/>
<path d="M0 0 C0.33 0 0.66 0 1 0 C2.33257403 9.41002278 2.33257403 9.41002278 1 14 C-1.02907167 10.6853333 -1.12742133 8.5684021 -0.625 4.75 C-0.51414062 3.85796875 -0.40328125 2.9659375 -0.2890625 2.046875 C-0.19367188 1.37140625 -0.09828125 0.6959375 0 0 Z " fill="#121612" transform="translate(1575,1368)"/>
<path d="M0 0 C0.66 0.66 1.32 1.32 2 2 C1.01 3.98 0.02 5.96 -1 8 C-1.66 7.34 -2.32 6.68 -3 6 C-2.63318342 3.06546739 -2.13562754 2.13562754 0 0 Z " fill="#141614" transform="translate(1331,1346)"/>
<path d="M0 0 C2.97 0 5.94 0 9 0 C9 0.33 9 0.66 9 1 C2.71428571 3.42857143 2.71428571 3.42857143 -1 2 C-0.67 1.34 -0.34 0.68 0 0 Z " fill="#EBECE7" transform="translate(668,535)"/>
</svg>
